G04 #@! TF.GenerationSoftware,KiCad,Pcbnew,6.0.0-rc1-unknown-bb2e402~66~ubuntu18.04.1*
G04 #@! TF.CreationDate,2019-04-16T15:47:46+02:00
G04 #@! TF.ProjectId,PentaESPConverter,50656e74-6145-4535-9043-6f6e76657274,rev?*
G04 #@! TF.SameCoordinates,Original*
G04 #@! TF.FileFunction,Legend,Top*
G04 #@! TF.FilePolarity,Positive*
%FSLAX46Y46*%
G04 Gerber Fmt 4.6, Leading zero omitted, Abs format (unit mm)*
G04 Created by KiCad (PCBNEW 6.0.0-rc1-unknown-bb2e402~66~ubuntu18.04.1) date Di 16 Apr 2019 15:47:46 CEST*
%MOMM*%
%LPD*%
G04 APERTURE LIST*
%ADD10C,0.120000*%
%ADD11C,0.150000*%
G04 APERTURE END LIST*
D10*
X127642500Y-116884000D02*
X127642500Y-118134000D01*
X128892500Y-116884000D02*
X127642500Y-116884000D01*
X142292500Y-122384000D02*
X135492500Y-122384000D01*
X142292500Y-119434000D02*
X142292500Y-122384000D01*
X143042500Y-119434000D02*
X142292500Y-119434000D01*
X128692500Y-122384000D02*
X135492500Y-122384000D01*
X128692500Y-119434000D02*
X128692500Y-122384000D01*
X127942500Y-119434000D02*
X128692500Y-119434000D01*
X143042500Y-117184000D02*
X141242500Y-117184000D01*
X143042500Y-117934000D02*
X143042500Y-117184000D01*
X141242500Y-117934000D02*
X143042500Y-117934000D01*
X141242500Y-117184000D02*
X141242500Y-117934000D01*
X129742500Y-117184000D02*
X127942500Y-117184000D01*
X129742500Y-117934000D02*
X129742500Y-117184000D01*
X127942500Y-117934000D02*
X129742500Y-117934000D01*
X127942500Y-117184000D02*
X127942500Y-117934000D01*
X139742500Y-117184000D02*
X131242500Y-117184000D01*
X139742500Y-117934000D02*
X139742500Y-117184000D01*
X131242500Y-117934000D02*
X139742500Y-117934000D01*
X131242500Y-117184000D02*
X131242500Y-117934000D01*
X143052500Y-117174000D02*
X127932500Y-117174000D01*
X143052500Y-123144000D02*
X143052500Y-117174000D01*
X127932500Y-123144000D02*
X143052500Y-123144000D01*
X127932500Y-117174000D02*
X127932500Y-123144000D01*
X123190000Y-98238000D02*
X124520000Y-98238000D01*
X124520000Y-98238000D02*
X124520000Y-99568000D01*
X121920000Y-98238000D02*
X121920000Y-100838000D01*
X121920000Y-100838000D02*
X124520000Y-100838000D01*
X124520000Y-100838000D02*
X124520000Y-116138000D01*
X119320000Y-116138000D02*
X124520000Y-116138000D01*
X119320000Y-98238000D02*
X119320000Y-116138000D01*
X119320000Y-98238000D02*
X121920000Y-98238000D01*
X149860000Y-98238000D02*
X151190000Y-98238000D01*
X151190000Y-98238000D02*
X151190000Y-99568000D01*
X148590000Y-98238000D02*
X148590000Y-100838000D01*
X148590000Y-100838000D02*
X151190000Y-100838000D01*
X151190000Y-100838000D02*
X151190000Y-116138000D01*
X145990000Y-116138000D02*
X151190000Y-116138000D01*
X145990000Y-98238000D02*
X145990000Y-116138000D01*
X145990000Y-98238000D02*
X148590000Y-98238000D01*
X126122501Y-97305001D02*
X125742501Y-97305001D01*
X126122501Y-90885001D02*
X126122501Y-97305001D01*
X144362501Y-90885001D02*
X144362501Y-97305001D01*
X126122501Y-90885001D02*
X144362501Y-90885001D01*
X144362501Y-116630001D02*
X143362501Y-116630001D01*
X144362501Y-115850001D02*
X144362501Y-116630001D01*
X126122501Y-116630001D02*
X127122501Y-116630001D01*
X126122501Y-115850001D02*
X126122501Y-116630001D01*
D11*
X135159166Y-115536380D02*
X135159166Y-116250666D01*
X135111547Y-116393523D01*
X135016309Y-116488761D01*
X134873452Y-116536380D01*
X134778214Y-116536380D01*
X135540119Y-115536380D02*
X136159166Y-115536380D01*
X135825833Y-115917333D01*
X135968690Y-115917333D01*
X136063928Y-115964952D01*
X136111547Y-116012571D01*
X136159166Y-116107809D01*
X136159166Y-116345904D01*
X136111547Y-116441142D01*
X136063928Y-116488761D01*
X135968690Y-116536380D01*
X135682976Y-116536380D01*
X135587738Y-116488761D01*
X135540119Y-116441142D01*
X121586666Y-96988380D02*
X121586666Y-97702666D01*
X121539047Y-97845523D01*
X121443809Y-97940761D01*
X121300952Y-97988380D01*
X121205714Y-97988380D01*
X122586666Y-97988380D02*
X122015238Y-97988380D01*
X122300952Y-97988380D02*
X122300952Y-96988380D01*
X122205714Y-97131238D01*
X122110476Y-97226476D01*
X122015238Y-97274095D01*
X148256666Y-96988380D02*
X148256666Y-97702666D01*
X148209047Y-97845523D01*
X148113809Y-97940761D01*
X147970952Y-97988380D01*
X147875714Y-97988380D01*
X148685238Y-97083619D02*
X148732857Y-97036000D01*
X148828095Y-96988380D01*
X149066190Y-96988380D01*
X149161428Y-97036000D01*
X149209047Y-97083619D01*
X149256666Y-97178857D01*
X149256666Y-97274095D01*
X149209047Y-97416952D01*
X148637619Y-97988380D01*
X149256666Y-97988380D01*
X124084881Y-115941905D02*
X124894405Y-115941905D01*
X124989643Y-115894286D01*
X125037262Y-115846667D01*
X125084881Y-115751429D01*
X125084881Y-115560953D01*
X125037262Y-115465715D01*
X124989643Y-115418096D01*
X124894405Y-115370477D01*
X124084881Y-115370477D01*
X124180120Y-114941905D02*
X124132501Y-114894286D01*
X124084881Y-114799048D01*
X124084881Y-114560953D01*
X124132501Y-114465715D01*
X124180120Y-114418096D01*
X124275358Y-114370477D01*
X124370596Y-114370477D01*
X124513453Y-114418096D01*
X125084881Y-114989524D01*
X125084881Y-114370477D01*
M02*
