G04 #@! TF.GenerationSoftware,KiCad,Pcbnew,6.0.0-rc1-unknown-bb2e402~66~ubuntu18.04.1*
G04 #@! TF.CreationDate,2019-04-16T15:47:46+02:00
G04 #@! TF.ProjectId,PentaESPConverter,50656e74-6145-4535-9043-6f6e76657274,rev?*
G04 #@! TF.SameCoordinates,Original*
G04 #@! TF.FileFunction,Soldermask,Top*
G04 #@! TF.FilePolarity,Negative*
%FSLAX46Y46*%
G04 Gerber Fmt 4.6, Leading zero omitted, Abs format (unit mm)*
G04 Created by KiCad (PCBNEW 6.0.0-rc1-unknown-bb2e402~66~ubuntu18.04.1) date Di 16 Apr 2019 15:47:46 CEST*
%MOMM*%
%LPD*%
G04 APERTURE LIST*
%ADD10C,0.100000*%
G04 APERTURE END LIST*
D10*
G36*
X133169126Y-118621037D02*
G01*
X133282352Y-118655384D01*
X133338966Y-118672557D01*
X133495489Y-118756221D01*
X133632686Y-118868814D01*
X133715948Y-118970271D01*
X133745278Y-119006009D01*
X133745279Y-119006011D01*
X133828943Y-119162533D01*
X133846116Y-119219147D01*
X133880463Y-119332373D01*
X133893500Y-119464742D01*
X133893500Y-119803257D01*
X133880463Y-119935626D01*
X133828943Y-120105466D01*
X133745278Y-120261991D01*
X133745277Y-120261992D01*
X133632686Y-120399186D01*
X133537751Y-120477096D01*
X133495491Y-120511778D01*
X133495489Y-120511779D01*
X133338967Y-120595443D01*
X133298234Y-120607799D01*
X133169127Y-120646963D01*
X132992500Y-120664359D01*
X132815874Y-120646963D01*
X132686767Y-120607799D01*
X132646034Y-120595443D01*
X132489512Y-120511779D01*
X132489510Y-120511778D01*
X132352316Y-120399186D01*
X132352312Y-120399183D01*
X132239722Y-120261992D01*
X132156057Y-120105467D01*
X132138884Y-120048853D01*
X132104537Y-119935627D01*
X132091500Y-119803258D01*
X132091500Y-119464743D01*
X132104537Y-119332374D01*
X132156057Y-119162535D01*
X132156057Y-119162534D01*
X132239721Y-119006011D01*
X132352314Y-118868814D01*
X132453771Y-118785552D01*
X132489509Y-118756222D01*
X132507413Y-118746652D01*
X132646033Y-118672557D01*
X132702647Y-118655384D01*
X132815873Y-118621037D01*
X132992500Y-118603641D01*
X133169126Y-118621037D01*
X133169126Y-118621037D01*
G37*
G36*
X135669126Y-118621037D02*
G01*
X135782352Y-118655384D01*
X135838966Y-118672557D01*
X135995489Y-118756221D01*
X136132686Y-118868814D01*
X136215948Y-118970271D01*
X136245278Y-119006009D01*
X136245279Y-119006011D01*
X136328943Y-119162533D01*
X136346116Y-119219147D01*
X136380463Y-119332373D01*
X136393500Y-119464742D01*
X136393500Y-119803257D01*
X136380463Y-119935626D01*
X136328943Y-120105466D01*
X136245278Y-120261991D01*
X136245277Y-120261992D01*
X136132686Y-120399186D01*
X136037751Y-120477096D01*
X135995491Y-120511778D01*
X135995489Y-120511779D01*
X135838967Y-120595443D01*
X135798234Y-120607799D01*
X135669127Y-120646963D01*
X135492500Y-120664359D01*
X135315874Y-120646963D01*
X135186767Y-120607799D01*
X135146034Y-120595443D01*
X134989512Y-120511779D01*
X134989510Y-120511778D01*
X134852316Y-120399186D01*
X134852312Y-120399183D01*
X134739722Y-120261992D01*
X134656057Y-120105467D01*
X134638884Y-120048853D01*
X134604537Y-119935627D01*
X134591500Y-119803258D01*
X134591500Y-119464743D01*
X134604537Y-119332374D01*
X134656057Y-119162535D01*
X134656057Y-119162534D01*
X134739721Y-119006011D01*
X134852314Y-118868814D01*
X134953771Y-118785552D01*
X134989509Y-118756222D01*
X135007413Y-118746652D01*
X135146033Y-118672557D01*
X135202647Y-118655384D01*
X135315873Y-118621037D01*
X135492500Y-118603641D01*
X135669126Y-118621037D01*
X135669126Y-118621037D01*
G37*
G36*
X140669126Y-118621037D02*
G01*
X140782352Y-118655384D01*
X140838966Y-118672557D01*
X140995489Y-118756221D01*
X141132686Y-118868814D01*
X141215948Y-118970271D01*
X141245278Y-119006009D01*
X141245279Y-119006011D01*
X141328943Y-119162533D01*
X141346116Y-119219147D01*
X141380463Y-119332373D01*
X141393500Y-119464742D01*
X141393500Y-119803257D01*
X141380463Y-119935626D01*
X141328943Y-120105466D01*
X141245278Y-120261991D01*
X141245277Y-120261992D01*
X141132686Y-120399186D01*
X141037751Y-120477096D01*
X140995491Y-120511778D01*
X140995489Y-120511779D01*
X140838967Y-120595443D01*
X140798234Y-120607799D01*
X140669127Y-120646963D01*
X140492500Y-120664359D01*
X140315874Y-120646963D01*
X140186767Y-120607799D01*
X140146034Y-120595443D01*
X139989512Y-120511779D01*
X139989510Y-120511778D01*
X139852316Y-120399186D01*
X139852312Y-120399183D01*
X139739722Y-120261992D01*
X139656057Y-120105467D01*
X139638884Y-120048853D01*
X139604537Y-119935627D01*
X139591500Y-119803258D01*
X139591500Y-119464743D01*
X139604537Y-119332374D01*
X139656057Y-119162535D01*
X139656057Y-119162534D01*
X139739721Y-119006011D01*
X139852314Y-118868814D01*
X139953771Y-118785552D01*
X139989509Y-118756222D01*
X140007413Y-118746652D01*
X140146033Y-118672557D01*
X140202647Y-118655384D01*
X140315873Y-118621037D01*
X140492500Y-118603641D01*
X140669126Y-118621037D01*
X140669126Y-118621037D01*
G37*
G36*
X138169126Y-118621037D02*
G01*
X138282352Y-118655384D01*
X138338966Y-118672557D01*
X138495489Y-118756221D01*
X138632686Y-118868814D01*
X138715948Y-118970271D01*
X138745278Y-119006009D01*
X138745279Y-119006011D01*
X138828943Y-119162533D01*
X138846116Y-119219147D01*
X138880463Y-119332373D01*
X138893500Y-119464742D01*
X138893500Y-119803257D01*
X138880463Y-119935626D01*
X138828943Y-120105466D01*
X138745278Y-120261991D01*
X138745277Y-120261992D01*
X138632686Y-120399186D01*
X138537751Y-120477096D01*
X138495491Y-120511778D01*
X138495489Y-120511779D01*
X138338967Y-120595443D01*
X138298234Y-120607799D01*
X138169127Y-120646963D01*
X137992500Y-120664359D01*
X137815874Y-120646963D01*
X137686767Y-120607799D01*
X137646034Y-120595443D01*
X137489512Y-120511779D01*
X137489510Y-120511778D01*
X137352316Y-120399186D01*
X137352312Y-120399183D01*
X137239722Y-120261992D01*
X137156057Y-120105467D01*
X137138884Y-120048853D01*
X137104537Y-119935627D01*
X137091500Y-119803258D01*
X137091500Y-119464743D01*
X137104537Y-119332374D01*
X137156057Y-119162535D01*
X137156057Y-119162534D01*
X137239721Y-119006011D01*
X137352314Y-118868814D01*
X137453771Y-118785552D01*
X137489509Y-118756222D01*
X137507413Y-118746652D01*
X137646033Y-118672557D01*
X137702647Y-118655384D01*
X137815873Y-118621037D01*
X137992500Y-118603641D01*
X138169126Y-118621037D01*
X138169126Y-118621037D01*
G37*
G36*
X131251100Y-118611989D02*
G01*
X131284149Y-118622014D01*
X131314606Y-118638294D01*
X131341299Y-118660201D01*
X131363206Y-118686894D01*
X131379486Y-118717351D01*
X131389511Y-118750400D01*
X131393500Y-118790904D01*
X131393500Y-120477096D01*
X131389511Y-120517600D01*
X131379486Y-120550649D01*
X131363206Y-120581106D01*
X131341299Y-120607799D01*
X131314606Y-120629706D01*
X131284149Y-120645986D01*
X131251100Y-120656011D01*
X131210596Y-120660000D01*
X129774404Y-120660000D01*
X129733900Y-120656011D01*
X129700851Y-120645986D01*
X129670394Y-120629706D01*
X129643701Y-120607799D01*
X129621794Y-120581106D01*
X129605514Y-120550649D01*
X129595489Y-120517600D01*
X129591500Y-120477096D01*
X129591500Y-118790904D01*
X129595489Y-118750400D01*
X129605514Y-118717351D01*
X129621794Y-118686894D01*
X129643701Y-118660201D01*
X129670394Y-118638294D01*
X129700851Y-118622014D01*
X129733900Y-118611989D01*
X129774404Y-118608000D01*
X131210596Y-118608000D01*
X131251100Y-118611989D01*
X131251100Y-118611989D01*
G37*
G36*
X140188501Y-117056001D02*
G01*
X139186501Y-117056001D01*
X139186501Y-114954001D01*
X140188501Y-114954001D01*
X140188501Y-117056001D01*
X140188501Y-117056001D01*
G37*
G36*
X130028501Y-117056001D02*
G01*
X129026501Y-117056001D01*
X129026501Y-114954001D01*
X130028501Y-114954001D01*
X130028501Y-117056001D01*
X130028501Y-117056001D01*
G37*
G36*
X131298501Y-117056001D02*
G01*
X130296501Y-117056001D01*
X130296501Y-114954001D01*
X131298501Y-114954001D01*
X131298501Y-117056001D01*
X131298501Y-117056001D01*
G37*
G36*
X132568501Y-117056001D02*
G01*
X131566501Y-117056001D01*
X131566501Y-114954001D01*
X132568501Y-114954001D01*
X132568501Y-117056001D01*
X132568501Y-117056001D01*
G37*
G36*
X133838501Y-117056001D02*
G01*
X132836501Y-117056001D01*
X132836501Y-114954001D01*
X133838501Y-114954001D01*
X133838501Y-117056001D01*
X133838501Y-117056001D01*
G37*
G36*
X135108501Y-117056001D02*
G01*
X134106501Y-117056001D01*
X134106501Y-114954001D01*
X135108501Y-114954001D01*
X135108501Y-117056001D01*
X135108501Y-117056001D01*
G37*
G36*
X136378501Y-117056001D02*
G01*
X135376501Y-117056001D01*
X135376501Y-114954001D01*
X136378501Y-114954001D01*
X136378501Y-117056001D01*
X136378501Y-117056001D01*
G37*
G36*
X137648501Y-117056001D02*
G01*
X136646501Y-117056001D01*
X136646501Y-114954001D01*
X137648501Y-114954001D01*
X137648501Y-117056001D01*
X137648501Y-117056001D01*
G37*
G36*
X138918501Y-117056001D02*
G01*
X137916501Y-117056001D01*
X137916501Y-114954001D01*
X138918501Y-114954001D01*
X138918501Y-117056001D01*
X138918501Y-117056001D01*
G37*
G36*
X141458501Y-117056001D02*
G01*
X140456501Y-117056001D01*
X140456501Y-114954001D01*
X141458501Y-114954001D01*
X141458501Y-117056001D01*
X141458501Y-117056001D01*
G37*
G36*
X149970442Y-113913518D02*
G01*
X150036627Y-113920037D01*
X150149853Y-113954384D01*
X150206467Y-113971557D01*
X150345087Y-114045652D01*
X150362991Y-114055222D01*
X150398729Y-114084552D01*
X150500186Y-114167814D01*
X150583448Y-114269271D01*
X150612778Y-114305009D01*
X150612779Y-114305011D01*
X150696443Y-114461533D01*
X150696443Y-114461534D01*
X150747963Y-114631373D01*
X150765359Y-114808000D01*
X150747963Y-114984627D01*
X150713616Y-115097853D01*
X150696443Y-115154467D01*
X150622348Y-115293087D01*
X150612778Y-115310991D01*
X150583448Y-115346729D01*
X150500186Y-115448186D01*
X150398729Y-115531448D01*
X150362991Y-115560778D01*
X150362989Y-115560779D01*
X150206467Y-115644443D01*
X150149853Y-115661616D01*
X150036627Y-115695963D01*
X149970442Y-115702482D01*
X149904260Y-115709000D01*
X149815740Y-115709000D01*
X149749558Y-115702482D01*
X149683373Y-115695963D01*
X149570147Y-115661616D01*
X149513533Y-115644443D01*
X149357011Y-115560779D01*
X149357009Y-115560778D01*
X149321271Y-115531448D01*
X149219814Y-115448186D01*
X149136552Y-115346729D01*
X149107222Y-115310991D01*
X149097652Y-115293087D01*
X149023557Y-115154467D01*
X149006384Y-115097853D01*
X148972037Y-114984627D01*
X148954641Y-114808000D01*
X148972037Y-114631373D01*
X149023557Y-114461534D01*
X149023557Y-114461533D01*
X149107221Y-114305011D01*
X149107222Y-114305009D01*
X149136552Y-114269271D01*
X149219814Y-114167814D01*
X149321271Y-114084552D01*
X149357009Y-114055222D01*
X149374913Y-114045652D01*
X149513533Y-113971557D01*
X149570147Y-113954384D01*
X149683373Y-113920037D01*
X149749558Y-113913518D01*
X149815740Y-113907000D01*
X149904260Y-113907000D01*
X149970442Y-113913518D01*
X149970442Y-113913518D01*
G37*
G36*
X147430442Y-113913518D02*
G01*
X147496627Y-113920037D01*
X147609853Y-113954384D01*
X147666467Y-113971557D01*
X147805087Y-114045652D01*
X147822991Y-114055222D01*
X147858729Y-114084552D01*
X147960186Y-114167814D01*
X148043448Y-114269271D01*
X148072778Y-114305009D01*
X148072779Y-114305011D01*
X148156443Y-114461533D01*
X148156443Y-114461534D01*
X148207963Y-114631373D01*
X148225359Y-114808000D01*
X148207963Y-114984627D01*
X148173616Y-115097853D01*
X148156443Y-115154467D01*
X148082348Y-115293087D01*
X148072778Y-115310991D01*
X148043448Y-115346729D01*
X147960186Y-115448186D01*
X147858729Y-115531448D01*
X147822991Y-115560778D01*
X147822989Y-115560779D01*
X147666467Y-115644443D01*
X147609853Y-115661616D01*
X147496627Y-115695963D01*
X147430442Y-115702482D01*
X147364260Y-115709000D01*
X147275740Y-115709000D01*
X147209558Y-115702482D01*
X147143373Y-115695963D01*
X147030147Y-115661616D01*
X146973533Y-115644443D01*
X146817011Y-115560779D01*
X146817009Y-115560778D01*
X146781271Y-115531448D01*
X146679814Y-115448186D01*
X146596552Y-115346729D01*
X146567222Y-115310991D01*
X146557652Y-115293087D01*
X146483557Y-115154467D01*
X146466384Y-115097853D01*
X146432037Y-114984627D01*
X146414641Y-114808000D01*
X146432037Y-114631373D01*
X146483557Y-114461534D01*
X146483557Y-114461533D01*
X146567221Y-114305011D01*
X146567222Y-114305009D01*
X146596552Y-114269271D01*
X146679814Y-114167814D01*
X146781271Y-114084552D01*
X146817009Y-114055222D01*
X146834913Y-114045652D01*
X146973533Y-113971557D01*
X147030147Y-113954384D01*
X147143373Y-113920037D01*
X147209558Y-113913518D01*
X147275740Y-113907000D01*
X147364260Y-113907000D01*
X147430442Y-113913518D01*
X147430442Y-113913518D01*
G37*
G36*
X123300442Y-113913518D02*
G01*
X123366627Y-113920037D01*
X123479853Y-113954384D01*
X123536467Y-113971557D01*
X123675087Y-114045652D01*
X123692991Y-114055222D01*
X123728729Y-114084552D01*
X123830186Y-114167814D01*
X123913448Y-114269271D01*
X123942778Y-114305009D01*
X123942779Y-114305011D01*
X124026443Y-114461533D01*
X124026443Y-114461534D01*
X124077963Y-114631373D01*
X124095359Y-114808000D01*
X124077963Y-114984627D01*
X124043616Y-115097853D01*
X124026443Y-115154467D01*
X123952348Y-115293087D01*
X123942778Y-115310991D01*
X123913448Y-115346729D01*
X123830186Y-115448186D01*
X123728729Y-115531448D01*
X123692991Y-115560778D01*
X123692989Y-115560779D01*
X123536467Y-115644443D01*
X123479853Y-115661616D01*
X123366627Y-115695963D01*
X123300442Y-115702482D01*
X123234260Y-115709000D01*
X123145740Y-115709000D01*
X123079558Y-115702482D01*
X123013373Y-115695963D01*
X122900147Y-115661616D01*
X122843533Y-115644443D01*
X122687011Y-115560779D01*
X122687009Y-115560778D01*
X122651271Y-115531448D01*
X122549814Y-115448186D01*
X122466552Y-115346729D01*
X122437222Y-115310991D01*
X122427652Y-115293087D01*
X122353557Y-115154467D01*
X122336384Y-115097853D01*
X122302037Y-114984627D01*
X122284641Y-114808000D01*
X122302037Y-114631373D01*
X122353557Y-114461534D01*
X122353557Y-114461533D01*
X122437221Y-114305011D01*
X122437222Y-114305009D01*
X122466552Y-114269271D01*
X122549814Y-114167814D01*
X122651271Y-114084552D01*
X122687009Y-114055222D01*
X122704913Y-114045652D01*
X122843533Y-113971557D01*
X122900147Y-113954384D01*
X123013373Y-113920037D01*
X123079558Y-113913518D01*
X123145740Y-113907000D01*
X123234260Y-113907000D01*
X123300442Y-113913518D01*
X123300442Y-113913518D01*
G37*
G36*
X120760442Y-113913518D02*
G01*
X120826627Y-113920037D01*
X120939853Y-113954384D01*
X120996467Y-113971557D01*
X121135087Y-114045652D01*
X121152991Y-114055222D01*
X121188729Y-114084552D01*
X121290186Y-114167814D01*
X121373448Y-114269271D01*
X121402778Y-114305009D01*
X121402779Y-114305011D01*
X121486443Y-114461533D01*
X121486443Y-114461534D01*
X121537963Y-114631373D01*
X121555359Y-114808000D01*
X121537963Y-114984627D01*
X121503616Y-115097853D01*
X121486443Y-115154467D01*
X121412348Y-115293087D01*
X121402778Y-115310991D01*
X121373448Y-115346729D01*
X121290186Y-115448186D01*
X121188729Y-115531448D01*
X121152991Y-115560778D01*
X121152989Y-115560779D01*
X120996467Y-115644443D01*
X120939853Y-115661616D01*
X120826627Y-115695963D01*
X120760442Y-115702482D01*
X120694260Y-115709000D01*
X120605740Y-115709000D01*
X120539558Y-115702482D01*
X120473373Y-115695963D01*
X120360147Y-115661616D01*
X120303533Y-115644443D01*
X120147011Y-115560779D01*
X120147009Y-115560778D01*
X120111271Y-115531448D01*
X120009814Y-115448186D01*
X119926552Y-115346729D01*
X119897222Y-115310991D01*
X119887652Y-115293087D01*
X119813557Y-115154467D01*
X119796384Y-115097853D01*
X119762037Y-114984627D01*
X119744641Y-114808000D01*
X119762037Y-114631373D01*
X119813557Y-114461534D01*
X119813557Y-114461533D01*
X119897221Y-114305011D01*
X119897222Y-114305009D01*
X119926552Y-114269271D01*
X120009814Y-114167814D01*
X120111271Y-114084552D01*
X120147009Y-114055222D01*
X120164913Y-114045652D01*
X120303533Y-113971557D01*
X120360147Y-113954384D01*
X120473373Y-113920037D01*
X120539558Y-113913518D01*
X120605740Y-113907000D01*
X120694260Y-113907000D01*
X120760442Y-113913518D01*
X120760442Y-113913518D01*
G37*
G36*
X127793501Y-115506001D02*
G01*
X125691501Y-115506001D01*
X125691501Y-114504001D01*
X127793501Y-114504001D01*
X127793501Y-115506001D01*
X127793501Y-115506001D01*
G37*
G36*
X144793501Y-115506001D02*
G01*
X142691501Y-115506001D01*
X142691501Y-114504001D01*
X144793501Y-114504001D01*
X144793501Y-115506001D01*
X144793501Y-115506001D01*
G37*
G36*
X127793501Y-114236001D02*
G01*
X125691501Y-114236001D01*
X125691501Y-113234001D01*
X127793501Y-113234001D01*
X127793501Y-114236001D01*
X127793501Y-114236001D01*
G37*
G36*
X144793501Y-114236001D02*
G01*
X142691501Y-114236001D01*
X142691501Y-113234001D01*
X144793501Y-113234001D01*
X144793501Y-114236001D01*
X144793501Y-114236001D01*
G37*
G36*
X120760443Y-111373519D02*
G01*
X120826627Y-111380037D01*
X120939853Y-111414384D01*
X120996467Y-111431557D01*
X121135087Y-111505652D01*
X121152991Y-111515222D01*
X121188729Y-111544552D01*
X121290186Y-111627814D01*
X121373448Y-111729271D01*
X121402778Y-111765009D01*
X121402779Y-111765011D01*
X121486443Y-111921533D01*
X121486443Y-111921534D01*
X121537963Y-112091373D01*
X121555359Y-112268000D01*
X121537963Y-112444627D01*
X121503616Y-112557853D01*
X121486443Y-112614467D01*
X121412348Y-112753087D01*
X121402778Y-112770991D01*
X121373448Y-112806729D01*
X121290186Y-112908186D01*
X121188729Y-112991448D01*
X121152991Y-113020778D01*
X121152989Y-113020779D01*
X120996467Y-113104443D01*
X120939853Y-113121616D01*
X120826627Y-113155963D01*
X120760442Y-113162482D01*
X120694260Y-113169000D01*
X120605740Y-113169000D01*
X120539558Y-113162482D01*
X120473373Y-113155963D01*
X120360147Y-113121616D01*
X120303533Y-113104443D01*
X120147011Y-113020779D01*
X120147009Y-113020778D01*
X120111271Y-112991448D01*
X120009814Y-112908186D01*
X119926552Y-112806729D01*
X119897222Y-112770991D01*
X119887652Y-112753087D01*
X119813557Y-112614467D01*
X119796384Y-112557853D01*
X119762037Y-112444627D01*
X119744641Y-112268000D01*
X119762037Y-112091373D01*
X119813557Y-111921534D01*
X119813557Y-111921533D01*
X119897221Y-111765011D01*
X119897222Y-111765009D01*
X119926552Y-111729271D01*
X120009814Y-111627814D01*
X120111271Y-111544552D01*
X120147009Y-111515222D01*
X120164913Y-111505652D01*
X120303533Y-111431557D01*
X120360147Y-111414384D01*
X120473373Y-111380037D01*
X120539557Y-111373519D01*
X120605740Y-111367000D01*
X120694260Y-111367000D01*
X120760443Y-111373519D01*
X120760443Y-111373519D01*
G37*
G36*
X123300443Y-111373519D02*
G01*
X123366627Y-111380037D01*
X123479853Y-111414384D01*
X123536467Y-111431557D01*
X123675087Y-111505652D01*
X123692991Y-111515222D01*
X123728729Y-111544552D01*
X123830186Y-111627814D01*
X123913448Y-111729271D01*
X123942778Y-111765009D01*
X123942779Y-111765011D01*
X124026443Y-111921533D01*
X124026443Y-111921534D01*
X124077963Y-112091373D01*
X124095359Y-112268000D01*
X124077963Y-112444627D01*
X124043616Y-112557853D01*
X124026443Y-112614467D01*
X123952348Y-112753087D01*
X123942778Y-112770991D01*
X123913448Y-112806729D01*
X123830186Y-112908186D01*
X123728729Y-112991448D01*
X123692991Y-113020778D01*
X123692989Y-113020779D01*
X123536467Y-113104443D01*
X123479853Y-113121616D01*
X123366627Y-113155963D01*
X123300442Y-113162482D01*
X123234260Y-113169000D01*
X123145740Y-113169000D01*
X123079558Y-113162482D01*
X123013373Y-113155963D01*
X122900147Y-113121616D01*
X122843533Y-113104443D01*
X122687011Y-113020779D01*
X122687009Y-113020778D01*
X122651271Y-112991448D01*
X122549814Y-112908186D01*
X122466552Y-112806729D01*
X122437222Y-112770991D01*
X122427652Y-112753087D01*
X122353557Y-112614467D01*
X122336384Y-112557853D01*
X122302037Y-112444627D01*
X122284641Y-112268000D01*
X122302037Y-112091373D01*
X122353557Y-111921534D01*
X122353557Y-111921533D01*
X122437221Y-111765011D01*
X122437222Y-111765009D01*
X122466552Y-111729271D01*
X122549814Y-111627814D01*
X122651271Y-111544552D01*
X122687009Y-111515222D01*
X122704913Y-111505652D01*
X122843533Y-111431557D01*
X122900147Y-111414384D01*
X123013373Y-111380037D01*
X123079557Y-111373519D01*
X123145740Y-111367000D01*
X123234260Y-111367000D01*
X123300443Y-111373519D01*
X123300443Y-111373519D01*
G37*
G36*
X147430443Y-111373519D02*
G01*
X147496627Y-111380037D01*
X147609853Y-111414384D01*
X147666467Y-111431557D01*
X147805087Y-111505652D01*
X147822991Y-111515222D01*
X147858729Y-111544552D01*
X147960186Y-111627814D01*
X148043448Y-111729271D01*
X148072778Y-111765009D01*
X148072779Y-111765011D01*
X148156443Y-111921533D01*
X148156443Y-111921534D01*
X148207963Y-112091373D01*
X148225359Y-112268000D01*
X148207963Y-112444627D01*
X148173616Y-112557853D01*
X148156443Y-112614467D01*
X148082348Y-112753087D01*
X148072778Y-112770991D01*
X148043448Y-112806729D01*
X147960186Y-112908186D01*
X147858729Y-112991448D01*
X147822991Y-113020778D01*
X147822989Y-113020779D01*
X147666467Y-113104443D01*
X147609853Y-113121616D01*
X147496627Y-113155963D01*
X147430442Y-113162482D01*
X147364260Y-113169000D01*
X147275740Y-113169000D01*
X147209558Y-113162482D01*
X147143373Y-113155963D01*
X147030147Y-113121616D01*
X146973533Y-113104443D01*
X146817011Y-113020779D01*
X146817009Y-113020778D01*
X146781271Y-112991448D01*
X146679814Y-112908186D01*
X146596552Y-112806729D01*
X146567222Y-112770991D01*
X146557652Y-112753087D01*
X146483557Y-112614467D01*
X146466384Y-112557853D01*
X146432037Y-112444627D01*
X146414641Y-112268000D01*
X146432037Y-112091373D01*
X146483557Y-111921534D01*
X146483557Y-111921533D01*
X146567221Y-111765011D01*
X146567222Y-111765009D01*
X146596552Y-111729271D01*
X146679814Y-111627814D01*
X146781271Y-111544552D01*
X146817009Y-111515222D01*
X146834913Y-111505652D01*
X146973533Y-111431557D01*
X147030147Y-111414384D01*
X147143373Y-111380037D01*
X147209557Y-111373519D01*
X147275740Y-111367000D01*
X147364260Y-111367000D01*
X147430443Y-111373519D01*
X147430443Y-111373519D01*
G37*
G36*
X149970443Y-111373519D02*
G01*
X150036627Y-111380037D01*
X150149853Y-111414384D01*
X150206467Y-111431557D01*
X150345087Y-111505652D01*
X150362991Y-111515222D01*
X150398729Y-111544552D01*
X150500186Y-111627814D01*
X150583448Y-111729271D01*
X150612778Y-111765009D01*
X150612779Y-111765011D01*
X150696443Y-111921533D01*
X150696443Y-111921534D01*
X150747963Y-112091373D01*
X150765359Y-112268000D01*
X150747963Y-112444627D01*
X150713616Y-112557853D01*
X150696443Y-112614467D01*
X150622348Y-112753087D01*
X150612778Y-112770991D01*
X150583448Y-112806729D01*
X150500186Y-112908186D01*
X150398729Y-112991448D01*
X150362991Y-113020778D01*
X150362989Y-113020779D01*
X150206467Y-113104443D01*
X150149853Y-113121616D01*
X150036627Y-113155963D01*
X149970442Y-113162482D01*
X149904260Y-113169000D01*
X149815740Y-113169000D01*
X149749558Y-113162482D01*
X149683373Y-113155963D01*
X149570147Y-113121616D01*
X149513533Y-113104443D01*
X149357011Y-113020779D01*
X149357009Y-113020778D01*
X149321271Y-112991448D01*
X149219814Y-112908186D01*
X149136552Y-112806729D01*
X149107222Y-112770991D01*
X149097652Y-112753087D01*
X149023557Y-112614467D01*
X149006384Y-112557853D01*
X148972037Y-112444627D01*
X148954641Y-112268000D01*
X148972037Y-112091373D01*
X149023557Y-111921534D01*
X149023557Y-111921533D01*
X149107221Y-111765011D01*
X149107222Y-111765009D01*
X149136552Y-111729271D01*
X149219814Y-111627814D01*
X149321271Y-111544552D01*
X149357009Y-111515222D01*
X149374913Y-111505652D01*
X149513533Y-111431557D01*
X149570147Y-111414384D01*
X149683373Y-111380037D01*
X149749557Y-111373519D01*
X149815740Y-111367000D01*
X149904260Y-111367000D01*
X149970443Y-111373519D01*
X149970443Y-111373519D01*
G37*
G36*
X144793501Y-112966001D02*
G01*
X142691501Y-112966001D01*
X142691501Y-111964001D01*
X144793501Y-111964001D01*
X144793501Y-112966001D01*
X144793501Y-112966001D01*
G37*
G36*
X127793501Y-112966001D02*
G01*
X125691501Y-112966001D01*
X125691501Y-111964001D01*
X127793501Y-111964001D01*
X127793501Y-112966001D01*
X127793501Y-112966001D01*
G37*
G36*
X144793501Y-111696001D02*
G01*
X142691501Y-111696001D01*
X142691501Y-110694001D01*
X144793501Y-110694001D01*
X144793501Y-111696001D01*
X144793501Y-111696001D01*
G37*
G36*
X127793501Y-111696001D02*
G01*
X125691501Y-111696001D01*
X125691501Y-110694001D01*
X127793501Y-110694001D01*
X127793501Y-111696001D01*
X127793501Y-111696001D01*
G37*
G36*
X120760443Y-108833519D02*
G01*
X120826627Y-108840037D01*
X120939853Y-108874384D01*
X120996467Y-108891557D01*
X121135087Y-108965652D01*
X121152991Y-108975222D01*
X121188729Y-109004552D01*
X121290186Y-109087814D01*
X121373448Y-109189271D01*
X121402778Y-109225009D01*
X121402779Y-109225011D01*
X121486443Y-109381533D01*
X121486443Y-109381534D01*
X121537963Y-109551373D01*
X121555359Y-109728000D01*
X121537963Y-109904627D01*
X121503616Y-110017853D01*
X121486443Y-110074467D01*
X121412348Y-110213087D01*
X121402778Y-110230991D01*
X121373448Y-110266729D01*
X121290186Y-110368186D01*
X121188729Y-110451448D01*
X121152991Y-110480778D01*
X121152989Y-110480779D01*
X120996467Y-110564443D01*
X120939853Y-110581616D01*
X120826627Y-110615963D01*
X120760442Y-110622482D01*
X120694260Y-110629000D01*
X120605740Y-110629000D01*
X120539558Y-110622482D01*
X120473373Y-110615963D01*
X120360147Y-110581616D01*
X120303533Y-110564443D01*
X120147011Y-110480779D01*
X120147009Y-110480778D01*
X120111271Y-110451448D01*
X120009814Y-110368186D01*
X119926552Y-110266729D01*
X119897222Y-110230991D01*
X119887652Y-110213087D01*
X119813557Y-110074467D01*
X119796384Y-110017853D01*
X119762037Y-109904627D01*
X119744641Y-109728000D01*
X119762037Y-109551373D01*
X119813557Y-109381534D01*
X119813557Y-109381533D01*
X119897221Y-109225011D01*
X119897222Y-109225009D01*
X119926552Y-109189271D01*
X120009814Y-109087814D01*
X120111271Y-109004552D01*
X120147009Y-108975222D01*
X120164913Y-108965652D01*
X120303533Y-108891557D01*
X120360147Y-108874384D01*
X120473373Y-108840037D01*
X120539557Y-108833519D01*
X120605740Y-108827000D01*
X120694260Y-108827000D01*
X120760443Y-108833519D01*
X120760443Y-108833519D01*
G37*
G36*
X147430443Y-108833519D02*
G01*
X147496627Y-108840037D01*
X147609853Y-108874384D01*
X147666467Y-108891557D01*
X147805087Y-108965652D01*
X147822991Y-108975222D01*
X147858729Y-109004552D01*
X147960186Y-109087814D01*
X148043448Y-109189271D01*
X148072778Y-109225009D01*
X148072779Y-109225011D01*
X148156443Y-109381533D01*
X148156443Y-109381534D01*
X148207963Y-109551373D01*
X148225359Y-109728000D01*
X148207963Y-109904627D01*
X148173616Y-110017853D01*
X148156443Y-110074467D01*
X148082348Y-110213087D01*
X148072778Y-110230991D01*
X148043448Y-110266729D01*
X147960186Y-110368186D01*
X147858729Y-110451448D01*
X147822991Y-110480778D01*
X147822989Y-110480779D01*
X147666467Y-110564443D01*
X147609853Y-110581616D01*
X147496627Y-110615963D01*
X147430442Y-110622482D01*
X147364260Y-110629000D01*
X147275740Y-110629000D01*
X147209558Y-110622482D01*
X147143373Y-110615963D01*
X147030147Y-110581616D01*
X146973533Y-110564443D01*
X146817011Y-110480779D01*
X146817009Y-110480778D01*
X146781271Y-110451448D01*
X146679814Y-110368186D01*
X146596552Y-110266729D01*
X146567222Y-110230991D01*
X146557652Y-110213087D01*
X146483557Y-110074467D01*
X146466384Y-110017853D01*
X146432037Y-109904627D01*
X146414641Y-109728000D01*
X146432037Y-109551373D01*
X146483557Y-109381534D01*
X146483557Y-109381533D01*
X146567221Y-109225011D01*
X146567222Y-109225009D01*
X146596552Y-109189271D01*
X146679814Y-109087814D01*
X146781271Y-109004552D01*
X146817009Y-108975222D01*
X146834913Y-108965652D01*
X146973533Y-108891557D01*
X147030147Y-108874384D01*
X147143373Y-108840037D01*
X147209557Y-108833519D01*
X147275740Y-108827000D01*
X147364260Y-108827000D01*
X147430443Y-108833519D01*
X147430443Y-108833519D01*
G37*
G36*
X149970443Y-108833519D02*
G01*
X150036627Y-108840037D01*
X150149853Y-108874384D01*
X150206467Y-108891557D01*
X150345087Y-108965652D01*
X150362991Y-108975222D01*
X150398729Y-109004552D01*
X150500186Y-109087814D01*
X150583448Y-109189271D01*
X150612778Y-109225009D01*
X150612779Y-109225011D01*
X150696443Y-109381533D01*
X150696443Y-109381534D01*
X150747963Y-109551373D01*
X150765359Y-109728000D01*
X150747963Y-109904627D01*
X150713616Y-110017853D01*
X150696443Y-110074467D01*
X150622348Y-110213087D01*
X150612778Y-110230991D01*
X150583448Y-110266729D01*
X150500186Y-110368186D01*
X150398729Y-110451448D01*
X150362991Y-110480778D01*
X150362989Y-110480779D01*
X150206467Y-110564443D01*
X150149853Y-110581616D01*
X150036627Y-110615963D01*
X149970442Y-110622482D01*
X149904260Y-110629000D01*
X149815740Y-110629000D01*
X149749558Y-110622482D01*
X149683373Y-110615963D01*
X149570147Y-110581616D01*
X149513533Y-110564443D01*
X149357011Y-110480779D01*
X149357009Y-110480778D01*
X149321271Y-110451448D01*
X149219814Y-110368186D01*
X149136552Y-110266729D01*
X149107222Y-110230991D01*
X149097652Y-110213087D01*
X149023557Y-110074467D01*
X149006384Y-110017853D01*
X148972037Y-109904627D01*
X148954641Y-109728000D01*
X148972037Y-109551373D01*
X149023557Y-109381534D01*
X149023557Y-109381533D01*
X149107221Y-109225011D01*
X149107222Y-109225009D01*
X149136552Y-109189271D01*
X149219814Y-109087814D01*
X149321271Y-109004552D01*
X149357009Y-108975222D01*
X149374913Y-108965652D01*
X149513533Y-108891557D01*
X149570147Y-108874384D01*
X149683373Y-108840037D01*
X149749557Y-108833519D01*
X149815740Y-108827000D01*
X149904260Y-108827000D01*
X149970443Y-108833519D01*
X149970443Y-108833519D01*
G37*
G36*
X123300443Y-108833519D02*
G01*
X123366627Y-108840037D01*
X123479853Y-108874384D01*
X123536467Y-108891557D01*
X123675087Y-108965652D01*
X123692991Y-108975222D01*
X123728729Y-109004552D01*
X123830186Y-109087814D01*
X123913448Y-109189271D01*
X123942778Y-109225009D01*
X123942779Y-109225011D01*
X124026443Y-109381533D01*
X124026443Y-109381534D01*
X124077963Y-109551373D01*
X124095359Y-109728000D01*
X124077963Y-109904627D01*
X124043616Y-110017853D01*
X124026443Y-110074467D01*
X123952348Y-110213087D01*
X123942778Y-110230991D01*
X123913448Y-110266729D01*
X123830186Y-110368186D01*
X123728729Y-110451448D01*
X123692991Y-110480778D01*
X123692989Y-110480779D01*
X123536467Y-110564443D01*
X123479853Y-110581616D01*
X123366627Y-110615963D01*
X123300442Y-110622482D01*
X123234260Y-110629000D01*
X123145740Y-110629000D01*
X123079558Y-110622482D01*
X123013373Y-110615963D01*
X122900147Y-110581616D01*
X122843533Y-110564443D01*
X122687011Y-110480779D01*
X122687009Y-110480778D01*
X122651271Y-110451448D01*
X122549814Y-110368186D01*
X122466552Y-110266729D01*
X122437222Y-110230991D01*
X122427652Y-110213087D01*
X122353557Y-110074467D01*
X122336384Y-110017853D01*
X122302037Y-109904627D01*
X122284641Y-109728000D01*
X122302037Y-109551373D01*
X122353557Y-109381534D01*
X122353557Y-109381533D01*
X122437221Y-109225011D01*
X122437222Y-109225009D01*
X122466552Y-109189271D01*
X122549814Y-109087814D01*
X122651271Y-109004552D01*
X122687009Y-108975222D01*
X122704913Y-108965652D01*
X122843533Y-108891557D01*
X122900147Y-108874384D01*
X123013373Y-108840037D01*
X123079557Y-108833519D01*
X123145740Y-108827000D01*
X123234260Y-108827000D01*
X123300443Y-108833519D01*
X123300443Y-108833519D01*
G37*
G36*
X127793501Y-110426001D02*
G01*
X125691501Y-110426001D01*
X125691501Y-109424001D01*
X127793501Y-109424001D01*
X127793501Y-110426001D01*
X127793501Y-110426001D01*
G37*
G36*
X144793501Y-110426001D02*
G01*
X142691501Y-110426001D01*
X142691501Y-109424001D01*
X144793501Y-109424001D01*
X144793501Y-110426001D01*
X144793501Y-110426001D01*
G37*
G36*
X144793501Y-109156001D02*
G01*
X142691501Y-109156001D01*
X142691501Y-108154001D01*
X144793501Y-108154001D01*
X144793501Y-109156001D01*
X144793501Y-109156001D01*
G37*
G36*
X127793501Y-109156001D02*
G01*
X125691501Y-109156001D01*
X125691501Y-108154001D01*
X127793501Y-108154001D01*
X127793501Y-109156001D01*
X127793501Y-109156001D01*
G37*
G36*
X136793501Y-108546001D02*
G01*
X131691501Y-108546001D01*
X131691501Y-103444001D01*
X136793501Y-103444001D01*
X136793501Y-108546001D01*
X136793501Y-108546001D01*
G37*
G36*
X123300442Y-106293518D02*
G01*
X123366627Y-106300037D01*
X123479853Y-106334384D01*
X123536467Y-106351557D01*
X123675087Y-106425652D01*
X123692991Y-106435222D01*
X123728729Y-106464552D01*
X123830186Y-106547814D01*
X123913448Y-106649271D01*
X123942778Y-106685009D01*
X123942779Y-106685011D01*
X124026443Y-106841533D01*
X124026443Y-106841534D01*
X124077963Y-107011373D01*
X124095359Y-107188000D01*
X124077963Y-107364627D01*
X124043616Y-107477853D01*
X124026443Y-107534467D01*
X123952348Y-107673087D01*
X123942778Y-107690991D01*
X123913448Y-107726729D01*
X123830186Y-107828186D01*
X123728729Y-107911448D01*
X123692991Y-107940778D01*
X123692989Y-107940779D01*
X123536467Y-108024443D01*
X123479853Y-108041616D01*
X123366627Y-108075963D01*
X123300442Y-108082482D01*
X123234260Y-108089000D01*
X123145740Y-108089000D01*
X123079558Y-108082482D01*
X123013373Y-108075963D01*
X122900147Y-108041616D01*
X122843533Y-108024443D01*
X122687011Y-107940779D01*
X122687009Y-107940778D01*
X122651271Y-107911448D01*
X122549814Y-107828186D01*
X122466552Y-107726729D01*
X122437222Y-107690991D01*
X122427652Y-107673087D01*
X122353557Y-107534467D01*
X122336384Y-107477853D01*
X122302037Y-107364627D01*
X122284641Y-107188000D01*
X122302037Y-107011373D01*
X122353557Y-106841534D01*
X122353557Y-106841533D01*
X122437221Y-106685011D01*
X122437222Y-106685009D01*
X122466552Y-106649271D01*
X122549814Y-106547814D01*
X122651271Y-106464552D01*
X122687009Y-106435222D01*
X122704913Y-106425652D01*
X122843533Y-106351557D01*
X122900147Y-106334384D01*
X123013373Y-106300037D01*
X123079558Y-106293518D01*
X123145740Y-106287000D01*
X123234260Y-106287000D01*
X123300442Y-106293518D01*
X123300442Y-106293518D01*
G37*
G36*
X147430442Y-106293518D02*
G01*
X147496627Y-106300037D01*
X147609853Y-106334384D01*
X147666467Y-106351557D01*
X147805087Y-106425652D01*
X147822991Y-106435222D01*
X147858729Y-106464552D01*
X147960186Y-106547814D01*
X148043448Y-106649271D01*
X148072778Y-106685009D01*
X148072779Y-106685011D01*
X148156443Y-106841533D01*
X148156443Y-106841534D01*
X148207963Y-107011373D01*
X148225359Y-107188000D01*
X148207963Y-107364627D01*
X148173616Y-107477853D01*
X148156443Y-107534467D01*
X148082348Y-107673087D01*
X148072778Y-107690991D01*
X148043448Y-107726729D01*
X147960186Y-107828186D01*
X147858729Y-107911448D01*
X147822991Y-107940778D01*
X147822989Y-107940779D01*
X147666467Y-108024443D01*
X147609853Y-108041616D01*
X147496627Y-108075963D01*
X147430442Y-108082482D01*
X147364260Y-108089000D01*
X147275740Y-108089000D01*
X147209558Y-108082482D01*
X147143373Y-108075963D01*
X147030147Y-108041616D01*
X146973533Y-108024443D01*
X146817011Y-107940779D01*
X146817009Y-107940778D01*
X146781271Y-107911448D01*
X146679814Y-107828186D01*
X146596552Y-107726729D01*
X146567222Y-107690991D01*
X146557652Y-107673087D01*
X146483557Y-107534467D01*
X146466384Y-107477853D01*
X146432037Y-107364627D01*
X146414641Y-107188000D01*
X146432037Y-107011373D01*
X146483557Y-106841534D01*
X146483557Y-106841533D01*
X146567221Y-106685011D01*
X146567222Y-106685009D01*
X146596552Y-106649271D01*
X146679814Y-106547814D01*
X146781271Y-106464552D01*
X146817009Y-106435222D01*
X146834913Y-106425652D01*
X146973533Y-106351557D01*
X147030147Y-106334384D01*
X147143373Y-106300037D01*
X147209558Y-106293518D01*
X147275740Y-106287000D01*
X147364260Y-106287000D01*
X147430442Y-106293518D01*
X147430442Y-106293518D01*
G37*
G36*
X120760442Y-106293518D02*
G01*
X120826627Y-106300037D01*
X120939853Y-106334384D01*
X120996467Y-106351557D01*
X121135087Y-106425652D01*
X121152991Y-106435222D01*
X121188729Y-106464552D01*
X121290186Y-106547814D01*
X121373448Y-106649271D01*
X121402778Y-106685009D01*
X121402779Y-106685011D01*
X121486443Y-106841533D01*
X121486443Y-106841534D01*
X121537963Y-107011373D01*
X121555359Y-107188000D01*
X121537963Y-107364627D01*
X121503616Y-107477853D01*
X121486443Y-107534467D01*
X121412348Y-107673087D01*
X121402778Y-107690991D01*
X121373448Y-107726729D01*
X121290186Y-107828186D01*
X121188729Y-107911448D01*
X121152991Y-107940778D01*
X121152989Y-107940779D01*
X120996467Y-108024443D01*
X120939853Y-108041616D01*
X120826627Y-108075963D01*
X120760442Y-108082482D01*
X120694260Y-108089000D01*
X120605740Y-108089000D01*
X120539558Y-108082482D01*
X120473373Y-108075963D01*
X120360147Y-108041616D01*
X120303533Y-108024443D01*
X120147011Y-107940779D01*
X120147009Y-107940778D01*
X120111271Y-107911448D01*
X120009814Y-107828186D01*
X119926552Y-107726729D01*
X119897222Y-107690991D01*
X119887652Y-107673087D01*
X119813557Y-107534467D01*
X119796384Y-107477853D01*
X119762037Y-107364627D01*
X119744641Y-107188000D01*
X119762037Y-107011373D01*
X119813557Y-106841534D01*
X119813557Y-106841533D01*
X119897221Y-106685011D01*
X119897222Y-106685009D01*
X119926552Y-106649271D01*
X120009814Y-106547814D01*
X120111271Y-106464552D01*
X120147009Y-106435222D01*
X120164913Y-106425652D01*
X120303533Y-106351557D01*
X120360147Y-106334384D01*
X120473373Y-106300037D01*
X120539558Y-106293518D01*
X120605740Y-106287000D01*
X120694260Y-106287000D01*
X120760442Y-106293518D01*
X120760442Y-106293518D01*
G37*
G36*
X149970442Y-106293518D02*
G01*
X150036627Y-106300037D01*
X150149853Y-106334384D01*
X150206467Y-106351557D01*
X150345087Y-106425652D01*
X150362991Y-106435222D01*
X150398729Y-106464552D01*
X150500186Y-106547814D01*
X150583448Y-106649271D01*
X150612778Y-106685009D01*
X150612779Y-106685011D01*
X150696443Y-106841533D01*
X150696443Y-106841534D01*
X150747963Y-107011373D01*
X150765359Y-107188000D01*
X150747963Y-107364627D01*
X150713616Y-107477853D01*
X150696443Y-107534467D01*
X150622348Y-107673087D01*
X150612778Y-107690991D01*
X150583448Y-107726729D01*
X150500186Y-107828186D01*
X150398729Y-107911448D01*
X150362991Y-107940778D01*
X150362989Y-107940779D01*
X150206467Y-108024443D01*
X150149853Y-108041616D01*
X150036627Y-108075963D01*
X149970442Y-108082482D01*
X149904260Y-108089000D01*
X149815740Y-108089000D01*
X149749558Y-108082482D01*
X149683373Y-108075963D01*
X149570147Y-108041616D01*
X149513533Y-108024443D01*
X149357011Y-107940779D01*
X149357009Y-107940778D01*
X149321271Y-107911448D01*
X149219814Y-107828186D01*
X149136552Y-107726729D01*
X149107222Y-107690991D01*
X149097652Y-107673087D01*
X149023557Y-107534467D01*
X149006384Y-107477853D01*
X148972037Y-107364627D01*
X148954641Y-107188000D01*
X148972037Y-107011373D01*
X149023557Y-106841534D01*
X149023557Y-106841533D01*
X149107221Y-106685011D01*
X149107222Y-106685009D01*
X149136552Y-106649271D01*
X149219814Y-106547814D01*
X149321271Y-106464552D01*
X149357009Y-106435222D01*
X149374913Y-106425652D01*
X149513533Y-106351557D01*
X149570147Y-106334384D01*
X149683373Y-106300037D01*
X149749558Y-106293518D01*
X149815740Y-106287000D01*
X149904260Y-106287000D01*
X149970442Y-106293518D01*
X149970442Y-106293518D01*
G37*
G36*
X144793501Y-107886001D02*
G01*
X142691501Y-107886001D01*
X142691501Y-106884001D01*
X144793501Y-106884001D01*
X144793501Y-107886001D01*
X144793501Y-107886001D01*
G37*
G36*
X127793501Y-107886001D02*
G01*
X125691501Y-107886001D01*
X125691501Y-106884001D01*
X127793501Y-106884001D01*
X127793501Y-107886001D01*
X127793501Y-107886001D01*
G37*
G36*
X144793501Y-106616001D02*
G01*
X142691501Y-106616001D01*
X142691501Y-105614001D01*
X144793501Y-105614001D01*
X144793501Y-106616001D01*
X144793501Y-106616001D01*
G37*
G36*
X127793501Y-106616001D02*
G01*
X125691501Y-106616001D01*
X125691501Y-105614001D01*
X127793501Y-105614001D01*
X127793501Y-106616001D01*
X127793501Y-106616001D01*
G37*
G36*
X147430442Y-103753518D02*
G01*
X147496627Y-103760037D01*
X147609853Y-103794384D01*
X147666467Y-103811557D01*
X147805087Y-103885652D01*
X147822991Y-103895222D01*
X147858729Y-103924552D01*
X147960186Y-104007814D01*
X148043448Y-104109271D01*
X148072778Y-104145009D01*
X148072779Y-104145011D01*
X148156443Y-104301533D01*
X148156443Y-104301534D01*
X148207963Y-104471373D01*
X148225359Y-104648000D01*
X148207963Y-104824627D01*
X148173616Y-104937853D01*
X148156443Y-104994467D01*
X148082348Y-105133087D01*
X148072778Y-105150991D01*
X148043448Y-105186729D01*
X147960186Y-105288186D01*
X147858729Y-105371448D01*
X147822991Y-105400778D01*
X147822989Y-105400779D01*
X147666467Y-105484443D01*
X147609853Y-105501616D01*
X147496627Y-105535963D01*
X147430442Y-105542482D01*
X147364260Y-105549000D01*
X147275740Y-105549000D01*
X147209558Y-105542482D01*
X147143373Y-105535963D01*
X147030147Y-105501616D01*
X146973533Y-105484443D01*
X146817011Y-105400779D01*
X146817009Y-105400778D01*
X146781271Y-105371448D01*
X146679814Y-105288186D01*
X146596552Y-105186729D01*
X146567222Y-105150991D01*
X146557652Y-105133087D01*
X146483557Y-104994467D01*
X146466384Y-104937853D01*
X146432037Y-104824627D01*
X146414641Y-104648000D01*
X146432037Y-104471373D01*
X146483557Y-104301534D01*
X146483557Y-104301533D01*
X146567221Y-104145011D01*
X146567222Y-104145009D01*
X146596552Y-104109271D01*
X146679814Y-104007814D01*
X146781271Y-103924552D01*
X146817009Y-103895222D01*
X146834913Y-103885652D01*
X146973533Y-103811557D01*
X147030147Y-103794384D01*
X147143373Y-103760037D01*
X147209558Y-103753518D01*
X147275740Y-103747000D01*
X147364260Y-103747000D01*
X147430442Y-103753518D01*
X147430442Y-103753518D01*
G37*
G36*
X120760442Y-103753518D02*
G01*
X120826627Y-103760037D01*
X120939853Y-103794384D01*
X120996467Y-103811557D01*
X121135087Y-103885652D01*
X121152991Y-103895222D01*
X121188729Y-103924552D01*
X121290186Y-104007814D01*
X121373448Y-104109271D01*
X121402778Y-104145009D01*
X121402779Y-104145011D01*
X121486443Y-104301533D01*
X121486443Y-104301534D01*
X121537963Y-104471373D01*
X121555359Y-104648000D01*
X121537963Y-104824627D01*
X121503616Y-104937853D01*
X121486443Y-104994467D01*
X121412348Y-105133087D01*
X121402778Y-105150991D01*
X121373448Y-105186729D01*
X121290186Y-105288186D01*
X121188729Y-105371448D01*
X121152991Y-105400778D01*
X121152989Y-105400779D01*
X120996467Y-105484443D01*
X120939853Y-105501616D01*
X120826627Y-105535963D01*
X120760442Y-105542482D01*
X120694260Y-105549000D01*
X120605740Y-105549000D01*
X120539558Y-105542482D01*
X120473373Y-105535963D01*
X120360147Y-105501616D01*
X120303533Y-105484443D01*
X120147011Y-105400779D01*
X120147009Y-105400778D01*
X120111271Y-105371448D01*
X120009814Y-105288186D01*
X119926552Y-105186729D01*
X119897222Y-105150991D01*
X119887652Y-105133087D01*
X119813557Y-104994467D01*
X119796384Y-104937853D01*
X119762037Y-104824627D01*
X119744641Y-104648000D01*
X119762037Y-104471373D01*
X119813557Y-104301534D01*
X119813557Y-104301533D01*
X119897221Y-104145011D01*
X119897222Y-104145009D01*
X119926552Y-104109271D01*
X120009814Y-104007814D01*
X120111271Y-103924552D01*
X120147009Y-103895222D01*
X120164913Y-103885652D01*
X120303533Y-103811557D01*
X120360147Y-103794384D01*
X120473373Y-103760037D01*
X120539558Y-103753518D01*
X120605740Y-103747000D01*
X120694260Y-103747000D01*
X120760442Y-103753518D01*
X120760442Y-103753518D01*
G37*
G36*
X123300442Y-103753518D02*
G01*
X123366627Y-103760037D01*
X123479853Y-103794384D01*
X123536467Y-103811557D01*
X123675087Y-103885652D01*
X123692991Y-103895222D01*
X123728729Y-103924552D01*
X123830186Y-104007814D01*
X123913448Y-104109271D01*
X123942778Y-104145009D01*
X123942779Y-104145011D01*
X124026443Y-104301533D01*
X124026443Y-104301534D01*
X124077963Y-104471373D01*
X124095359Y-104648000D01*
X124077963Y-104824627D01*
X124043616Y-104937853D01*
X124026443Y-104994467D01*
X123952348Y-105133087D01*
X123942778Y-105150991D01*
X123913448Y-105186729D01*
X123830186Y-105288186D01*
X123728729Y-105371448D01*
X123692991Y-105400778D01*
X123692989Y-105400779D01*
X123536467Y-105484443D01*
X123479853Y-105501616D01*
X123366627Y-105535963D01*
X123300442Y-105542482D01*
X123234260Y-105549000D01*
X123145740Y-105549000D01*
X123079558Y-105542482D01*
X123013373Y-105535963D01*
X122900147Y-105501616D01*
X122843533Y-105484443D01*
X122687011Y-105400779D01*
X122687009Y-105400778D01*
X122651271Y-105371448D01*
X122549814Y-105288186D01*
X122466552Y-105186729D01*
X122437222Y-105150991D01*
X122427652Y-105133087D01*
X122353557Y-104994467D01*
X122336384Y-104937853D01*
X122302037Y-104824627D01*
X122284641Y-104648000D01*
X122302037Y-104471373D01*
X122353557Y-104301534D01*
X122353557Y-104301533D01*
X122437221Y-104145011D01*
X122437222Y-104145009D01*
X122466552Y-104109271D01*
X122549814Y-104007814D01*
X122651271Y-103924552D01*
X122687009Y-103895222D01*
X122704913Y-103885652D01*
X122843533Y-103811557D01*
X122900147Y-103794384D01*
X123013373Y-103760037D01*
X123079558Y-103753518D01*
X123145740Y-103747000D01*
X123234260Y-103747000D01*
X123300442Y-103753518D01*
X123300442Y-103753518D01*
G37*
G36*
X149970442Y-103753518D02*
G01*
X150036627Y-103760037D01*
X150149853Y-103794384D01*
X150206467Y-103811557D01*
X150345087Y-103885652D01*
X150362991Y-103895222D01*
X150398729Y-103924552D01*
X150500186Y-104007814D01*
X150583448Y-104109271D01*
X150612778Y-104145009D01*
X150612779Y-104145011D01*
X150696443Y-104301533D01*
X150696443Y-104301534D01*
X150747963Y-104471373D01*
X150765359Y-104648000D01*
X150747963Y-104824627D01*
X150713616Y-104937853D01*
X150696443Y-104994467D01*
X150622348Y-105133087D01*
X150612778Y-105150991D01*
X150583448Y-105186729D01*
X150500186Y-105288186D01*
X150398729Y-105371448D01*
X150362991Y-105400778D01*
X150362989Y-105400779D01*
X150206467Y-105484443D01*
X150149853Y-105501616D01*
X150036627Y-105535963D01*
X149970442Y-105542482D01*
X149904260Y-105549000D01*
X149815740Y-105549000D01*
X149749558Y-105542482D01*
X149683373Y-105535963D01*
X149570147Y-105501616D01*
X149513533Y-105484443D01*
X149357011Y-105400779D01*
X149357009Y-105400778D01*
X149321271Y-105371448D01*
X149219814Y-105288186D01*
X149136552Y-105186729D01*
X149107222Y-105150991D01*
X149097652Y-105133087D01*
X149023557Y-104994467D01*
X149006384Y-104937853D01*
X148972037Y-104824627D01*
X148954641Y-104648000D01*
X148972037Y-104471373D01*
X149023557Y-104301534D01*
X149023557Y-104301533D01*
X149107221Y-104145011D01*
X149107222Y-104145009D01*
X149136552Y-104109271D01*
X149219814Y-104007814D01*
X149321271Y-103924552D01*
X149357009Y-103895222D01*
X149374913Y-103885652D01*
X149513533Y-103811557D01*
X149570147Y-103794384D01*
X149683373Y-103760037D01*
X149749558Y-103753518D01*
X149815740Y-103747000D01*
X149904260Y-103747000D01*
X149970442Y-103753518D01*
X149970442Y-103753518D01*
G37*
G36*
X144793501Y-105346001D02*
G01*
X142691501Y-105346001D01*
X142691501Y-104344001D01*
X144793501Y-104344001D01*
X144793501Y-105346001D01*
X144793501Y-105346001D01*
G37*
G36*
X127793501Y-105346001D02*
G01*
X125691501Y-105346001D01*
X125691501Y-104344001D01*
X127793501Y-104344001D01*
X127793501Y-105346001D01*
X127793501Y-105346001D01*
G37*
G36*
X144793501Y-104076001D02*
G01*
X142691501Y-104076001D01*
X142691501Y-103074001D01*
X144793501Y-103074001D01*
X144793501Y-104076001D01*
X144793501Y-104076001D01*
G37*
G36*
X127793501Y-104076001D02*
G01*
X125691501Y-104076001D01*
X125691501Y-103074001D01*
X127793501Y-103074001D01*
X127793501Y-104076001D01*
X127793501Y-104076001D01*
G37*
G36*
X147430442Y-101213518D02*
G01*
X147496627Y-101220037D01*
X147609853Y-101254384D01*
X147666467Y-101271557D01*
X147805087Y-101345652D01*
X147822991Y-101355222D01*
X147858729Y-101384552D01*
X147960186Y-101467814D01*
X148043448Y-101569271D01*
X148072778Y-101605009D01*
X148072779Y-101605011D01*
X148156443Y-101761533D01*
X148156443Y-101761534D01*
X148207963Y-101931373D01*
X148225359Y-102108000D01*
X148207963Y-102284627D01*
X148173616Y-102397853D01*
X148156443Y-102454467D01*
X148082348Y-102593087D01*
X148072778Y-102610991D01*
X148043448Y-102646729D01*
X147960186Y-102748186D01*
X147858729Y-102831448D01*
X147822991Y-102860778D01*
X147822989Y-102860779D01*
X147666467Y-102944443D01*
X147609853Y-102961616D01*
X147496627Y-102995963D01*
X147430443Y-103002481D01*
X147364260Y-103009000D01*
X147275740Y-103009000D01*
X147209558Y-103002482D01*
X147143373Y-102995963D01*
X147030147Y-102961616D01*
X146973533Y-102944443D01*
X146817011Y-102860779D01*
X146817009Y-102860778D01*
X146781271Y-102831448D01*
X146679814Y-102748186D01*
X146596552Y-102646729D01*
X146567222Y-102610991D01*
X146557652Y-102593087D01*
X146483557Y-102454467D01*
X146466384Y-102397853D01*
X146432037Y-102284627D01*
X146414641Y-102108000D01*
X146432037Y-101931373D01*
X146483557Y-101761534D01*
X146483557Y-101761533D01*
X146567221Y-101605011D01*
X146567222Y-101605009D01*
X146596552Y-101569271D01*
X146679814Y-101467814D01*
X146781271Y-101384552D01*
X146817009Y-101355222D01*
X146834913Y-101345652D01*
X146973533Y-101271557D01*
X147030147Y-101254384D01*
X147143373Y-101220037D01*
X147209557Y-101213519D01*
X147275740Y-101207000D01*
X147364260Y-101207000D01*
X147430442Y-101213518D01*
X147430442Y-101213518D01*
G37*
G36*
X149970442Y-101213518D02*
G01*
X150036627Y-101220037D01*
X150149853Y-101254384D01*
X150206467Y-101271557D01*
X150345087Y-101345652D01*
X150362991Y-101355222D01*
X150398729Y-101384552D01*
X150500186Y-101467814D01*
X150583448Y-101569271D01*
X150612778Y-101605009D01*
X150612779Y-101605011D01*
X150696443Y-101761533D01*
X150696443Y-101761534D01*
X150747963Y-101931373D01*
X150765359Y-102108000D01*
X150747963Y-102284627D01*
X150713616Y-102397853D01*
X150696443Y-102454467D01*
X150622348Y-102593087D01*
X150612778Y-102610991D01*
X150583448Y-102646729D01*
X150500186Y-102748186D01*
X150398729Y-102831448D01*
X150362991Y-102860778D01*
X150362989Y-102860779D01*
X150206467Y-102944443D01*
X150149853Y-102961616D01*
X150036627Y-102995963D01*
X149970443Y-103002481D01*
X149904260Y-103009000D01*
X149815740Y-103009000D01*
X149749558Y-103002482D01*
X149683373Y-102995963D01*
X149570147Y-102961616D01*
X149513533Y-102944443D01*
X149357011Y-102860779D01*
X149357009Y-102860778D01*
X149321271Y-102831448D01*
X149219814Y-102748186D01*
X149136552Y-102646729D01*
X149107222Y-102610991D01*
X149097652Y-102593087D01*
X149023557Y-102454467D01*
X149006384Y-102397853D01*
X148972037Y-102284627D01*
X148954641Y-102108000D01*
X148972037Y-101931373D01*
X149023557Y-101761534D01*
X149023557Y-101761533D01*
X149107221Y-101605011D01*
X149107222Y-101605009D01*
X149136552Y-101569271D01*
X149219814Y-101467814D01*
X149321271Y-101384552D01*
X149357009Y-101355222D01*
X149374913Y-101345652D01*
X149513533Y-101271557D01*
X149570147Y-101254384D01*
X149683373Y-101220037D01*
X149749557Y-101213519D01*
X149815740Y-101207000D01*
X149904260Y-101207000D01*
X149970442Y-101213518D01*
X149970442Y-101213518D01*
G37*
G36*
X120760442Y-101213518D02*
G01*
X120826627Y-101220037D01*
X120939853Y-101254384D01*
X120996467Y-101271557D01*
X121135087Y-101345652D01*
X121152991Y-101355222D01*
X121188729Y-101384552D01*
X121290186Y-101467814D01*
X121373448Y-101569271D01*
X121402778Y-101605009D01*
X121402779Y-101605011D01*
X121486443Y-101761533D01*
X121486443Y-101761534D01*
X121537963Y-101931373D01*
X121555359Y-102108000D01*
X121537963Y-102284627D01*
X121503616Y-102397853D01*
X121486443Y-102454467D01*
X121412348Y-102593087D01*
X121402778Y-102610991D01*
X121373448Y-102646729D01*
X121290186Y-102748186D01*
X121188729Y-102831448D01*
X121152991Y-102860778D01*
X121152989Y-102860779D01*
X120996467Y-102944443D01*
X120939853Y-102961616D01*
X120826627Y-102995963D01*
X120760443Y-103002481D01*
X120694260Y-103009000D01*
X120605740Y-103009000D01*
X120539558Y-103002482D01*
X120473373Y-102995963D01*
X120360147Y-102961616D01*
X120303533Y-102944443D01*
X120147011Y-102860779D01*
X120147009Y-102860778D01*
X120111271Y-102831448D01*
X120009814Y-102748186D01*
X119926552Y-102646729D01*
X119897222Y-102610991D01*
X119887652Y-102593087D01*
X119813557Y-102454467D01*
X119796384Y-102397853D01*
X119762037Y-102284627D01*
X119744641Y-102108000D01*
X119762037Y-101931373D01*
X119813557Y-101761534D01*
X119813557Y-101761533D01*
X119897221Y-101605011D01*
X119897222Y-101605009D01*
X119926552Y-101569271D01*
X120009814Y-101467814D01*
X120111271Y-101384552D01*
X120147009Y-101355222D01*
X120164913Y-101345652D01*
X120303533Y-101271557D01*
X120360147Y-101254384D01*
X120473373Y-101220037D01*
X120539557Y-101213519D01*
X120605740Y-101207000D01*
X120694260Y-101207000D01*
X120760442Y-101213518D01*
X120760442Y-101213518D01*
G37*
G36*
X123300442Y-101213518D02*
G01*
X123366627Y-101220037D01*
X123479853Y-101254384D01*
X123536467Y-101271557D01*
X123675087Y-101345652D01*
X123692991Y-101355222D01*
X123728729Y-101384552D01*
X123830186Y-101467814D01*
X123913448Y-101569271D01*
X123942778Y-101605009D01*
X123942779Y-101605011D01*
X124026443Y-101761533D01*
X124026443Y-101761534D01*
X124077963Y-101931373D01*
X124095359Y-102108000D01*
X124077963Y-102284627D01*
X124043616Y-102397853D01*
X124026443Y-102454467D01*
X123952348Y-102593087D01*
X123942778Y-102610991D01*
X123913448Y-102646729D01*
X123830186Y-102748186D01*
X123728729Y-102831448D01*
X123692991Y-102860778D01*
X123692989Y-102860779D01*
X123536467Y-102944443D01*
X123479853Y-102961616D01*
X123366627Y-102995963D01*
X123300443Y-103002481D01*
X123234260Y-103009000D01*
X123145740Y-103009000D01*
X123079558Y-103002482D01*
X123013373Y-102995963D01*
X122900147Y-102961616D01*
X122843533Y-102944443D01*
X122687011Y-102860779D01*
X122687009Y-102860778D01*
X122651271Y-102831448D01*
X122549814Y-102748186D01*
X122466552Y-102646729D01*
X122437222Y-102610991D01*
X122427652Y-102593087D01*
X122353557Y-102454467D01*
X122336384Y-102397853D01*
X122302037Y-102284627D01*
X122284641Y-102108000D01*
X122302037Y-101931373D01*
X122353557Y-101761534D01*
X122353557Y-101761533D01*
X122437221Y-101605011D01*
X122437222Y-101605009D01*
X122466552Y-101569271D01*
X122549814Y-101467814D01*
X122651271Y-101384552D01*
X122687009Y-101355222D01*
X122704913Y-101345652D01*
X122843533Y-101271557D01*
X122900147Y-101254384D01*
X123013373Y-101220037D01*
X123079557Y-101213519D01*
X123145740Y-101207000D01*
X123234260Y-101207000D01*
X123300442Y-101213518D01*
X123300442Y-101213518D01*
G37*
G36*
X127793501Y-102806001D02*
G01*
X125691501Y-102806001D01*
X125691501Y-101804001D01*
X127793501Y-101804001D01*
X127793501Y-102806001D01*
X127793501Y-102806001D01*
G37*
G36*
X144793501Y-102806001D02*
G01*
X142691501Y-102806001D01*
X142691501Y-101804001D01*
X144793501Y-101804001D01*
X144793501Y-102806001D01*
X144793501Y-102806001D01*
G37*
G36*
X127793501Y-101536001D02*
G01*
X125691501Y-101536001D01*
X125691501Y-100534001D01*
X127793501Y-100534001D01*
X127793501Y-101536001D01*
X127793501Y-101536001D01*
G37*
G36*
X144793501Y-101536001D02*
G01*
X142691501Y-101536001D01*
X142691501Y-100534001D01*
X144793501Y-100534001D01*
X144793501Y-101536001D01*
X144793501Y-101536001D01*
G37*
G36*
X120760442Y-98673518D02*
G01*
X120826627Y-98680037D01*
X120939853Y-98714384D01*
X120996467Y-98731557D01*
X121135087Y-98805652D01*
X121152991Y-98815222D01*
X121188729Y-98844552D01*
X121290186Y-98927814D01*
X121373448Y-99029271D01*
X121402778Y-99065009D01*
X121402779Y-99065011D01*
X121486443Y-99221533D01*
X121486443Y-99221534D01*
X121537963Y-99391373D01*
X121555359Y-99568000D01*
X121537963Y-99744627D01*
X121503616Y-99857853D01*
X121486443Y-99914467D01*
X121412348Y-100053087D01*
X121402778Y-100070991D01*
X121373448Y-100106729D01*
X121290186Y-100208186D01*
X121188729Y-100291448D01*
X121152991Y-100320778D01*
X121152989Y-100320779D01*
X120996467Y-100404443D01*
X120939853Y-100421616D01*
X120826627Y-100455963D01*
X120760442Y-100462482D01*
X120694260Y-100469000D01*
X120605740Y-100469000D01*
X120539557Y-100462481D01*
X120473373Y-100455963D01*
X120360147Y-100421616D01*
X120303533Y-100404443D01*
X120147011Y-100320779D01*
X120147009Y-100320778D01*
X120111271Y-100291448D01*
X120009814Y-100208186D01*
X119926552Y-100106729D01*
X119897222Y-100070991D01*
X119887652Y-100053087D01*
X119813557Y-99914467D01*
X119796384Y-99857853D01*
X119762037Y-99744627D01*
X119744641Y-99568000D01*
X119762037Y-99391373D01*
X119813557Y-99221534D01*
X119813557Y-99221533D01*
X119897221Y-99065011D01*
X119897222Y-99065009D01*
X119926552Y-99029271D01*
X120009814Y-98927814D01*
X120111271Y-98844552D01*
X120147009Y-98815222D01*
X120164913Y-98805652D01*
X120303533Y-98731557D01*
X120360147Y-98714384D01*
X120473373Y-98680037D01*
X120539558Y-98673518D01*
X120605740Y-98667000D01*
X120694260Y-98667000D01*
X120760442Y-98673518D01*
X120760442Y-98673518D01*
G37*
G36*
X150761000Y-100469000D02*
G01*
X148959000Y-100469000D01*
X148959000Y-98667000D01*
X150761000Y-98667000D01*
X150761000Y-100469000D01*
X150761000Y-100469000D01*
G37*
G36*
X147430442Y-98673518D02*
G01*
X147496627Y-98680037D01*
X147609853Y-98714384D01*
X147666467Y-98731557D01*
X147805087Y-98805652D01*
X147822991Y-98815222D01*
X147858729Y-98844552D01*
X147960186Y-98927814D01*
X148043448Y-99029271D01*
X148072778Y-99065009D01*
X148072779Y-99065011D01*
X148156443Y-99221533D01*
X148156443Y-99221534D01*
X148207963Y-99391373D01*
X148225359Y-99568000D01*
X148207963Y-99744627D01*
X148173616Y-99857853D01*
X148156443Y-99914467D01*
X148082348Y-100053087D01*
X148072778Y-100070991D01*
X148043448Y-100106729D01*
X147960186Y-100208186D01*
X147858729Y-100291448D01*
X147822991Y-100320778D01*
X147822989Y-100320779D01*
X147666467Y-100404443D01*
X147609853Y-100421616D01*
X147496627Y-100455963D01*
X147430442Y-100462482D01*
X147364260Y-100469000D01*
X147275740Y-100469000D01*
X147209557Y-100462481D01*
X147143373Y-100455963D01*
X147030147Y-100421616D01*
X146973533Y-100404443D01*
X146817011Y-100320779D01*
X146817009Y-100320778D01*
X146781271Y-100291448D01*
X146679814Y-100208186D01*
X146596552Y-100106729D01*
X146567222Y-100070991D01*
X146557652Y-100053087D01*
X146483557Y-99914467D01*
X146466384Y-99857853D01*
X146432037Y-99744627D01*
X146414641Y-99568000D01*
X146432037Y-99391373D01*
X146483557Y-99221534D01*
X146483557Y-99221533D01*
X146567221Y-99065011D01*
X146567222Y-99065009D01*
X146596552Y-99029271D01*
X146679814Y-98927814D01*
X146781271Y-98844552D01*
X146817009Y-98815222D01*
X146834913Y-98805652D01*
X146973533Y-98731557D01*
X147030147Y-98714384D01*
X147143373Y-98680037D01*
X147209558Y-98673518D01*
X147275740Y-98667000D01*
X147364260Y-98667000D01*
X147430442Y-98673518D01*
X147430442Y-98673518D01*
G37*
G36*
X124091000Y-100469000D02*
G01*
X122289000Y-100469000D01*
X122289000Y-98667000D01*
X124091000Y-98667000D01*
X124091000Y-100469000D01*
X124091000Y-100469000D01*
G37*
G36*
X144793501Y-100266001D02*
G01*
X142691501Y-100266001D01*
X142691501Y-99264001D01*
X144793501Y-99264001D01*
X144793501Y-100266001D01*
X144793501Y-100266001D01*
G37*
G36*
X127793501Y-100266001D02*
G01*
X125691501Y-100266001D01*
X125691501Y-99264001D01*
X127793501Y-99264001D01*
X127793501Y-100266001D01*
X127793501Y-100266001D01*
G37*
G36*
X144793501Y-98996001D02*
G01*
X142691501Y-98996001D01*
X142691501Y-97994001D01*
X144793501Y-97994001D01*
X144793501Y-98996001D01*
X144793501Y-98996001D01*
G37*
G36*
X127793501Y-98996001D02*
G01*
X125691501Y-98996001D01*
X125691501Y-97994001D01*
X127793501Y-97994001D01*
X127793501Y-98996001D01*
X127793501Y-98996001D01*
G37*
M02*
